<svg width="53" height="53" viewBox="0 0 53 53" fill="none" xmlns="http://www.w3.org/2000/svg">
<circle cx="26.5" cy="26.5" r="26" stroke="white"/>
<path d="M9.5 28C11 35.5 14.5 40.5 20.5 42.5C27.5 44.8333 33.5 43.5 39.5 37.5" stroke="white" stroke-width="3"/>
<path d="M43 24.5833C41.5 17.0833 38 12.0833 32 10.0833C25 7.75001 19 9.08334 13 15.0833" stroke="white" stroke-width="3"/>
<path d="M43.616 33.5C43.2311 34.1667 42.2689 34.1667 41.884 33.5L36.6878 24.5C36.3029 23.8333 36.784 23 37.5538 23H47.9462C48.716 23 49.1971 23.8333 48.8122 24.5L43.616 33.5Z" fill="white"/>
<path d="M9.63398 21.5C10.0189 20.8333 10.9811 20.8333 11.366 21.5L16.5622 30.5C16.9471 31.1667 16.466 32 15.6962 32H5.30385C4.53405 32 4.05292 31.1667 4.43782 30.5L9.63398 21.5Z" fill="white"/>
</svg>
