<svg width="50" height="66" viewBox="0 0 50 66" fill="none" xmlns="http://www.w3.org/2000/svg">
<path d="M38.5 5.75H25.9998C24.2531 5.75 22.91 4.20529 23.1527 2.47556C23.3519 1.05597 24.5663 0 25.9998 0H47C48.6569 0 50 1.34315 50 3V35.25C50 36.9069 48.6569 38.25 47 38.25H38.5C36.8431 38.25 35.5 39.5931 35.5 41.25V45.75C35.5 47.4069 36.8431 48.75 38.5 48.75H47C48.6569 48.75 50 50.0931 50 51.75V63C50 64.6569 48.6569 66 47 66H3C1.34315 66 0 64.6569 0 63V56.5C0 55.8096 0.559644 55.25 1.25 55.25C1.94036 55.25 2.5 54.6904 2.5 54V53C2.5 52.0335 3.2835 51.25 4.25 51.25C5.2165 51.25 6 50.4665 6 49.5V48.5C6 46.9812 4.76878 45.75 3.25 45.75H3C1.34315 45.75 0 44.4069 0 42.75V16.82C0 15.1631 1.34315 13.82 3 13.82H38.5C40.1569 13.82 41.5 12.4769 41.5 10.82V8.75C41.5 7.09315 40.1569 5.75 38.5 5.75Z" fill="black"/>
</svg>
